<svg width="52" height="31" viewBox="0 0 52 31" fill="none" xmlns="http://www.w3.org/2000/svg">
<g id="Frame" clip-path="url(#clip0_10_2863)">
<g id="Vector">
<path d="M48.7269 12.4983C48.5144 12.2599 48.2333 12.0966 47.9241 12.0318C47.6149 11.9669 47.2936 12.004 47.0063 12.1375L34.0292 18.1692L27.293 6.24609C27.1622 6.01389 26.9738 5.82101 26.7468 5.6869C26.5198 5.55279 26.2623 5.48218 26.0001 5.48218C25.7379 5.48218 25.4803 5.55279 25.2533 5.6869C25.0263 5.82101 24.8379 6.01389 24.7071 6.24609L17.9709 18.1692L4.9938 12.1375C4.70658 12.0041 4.38536 11.9672 4.07631 12.032C3.76725 12.0969 3.48627 12.2602 3.27375 12.4984C3.06123 12.7367 2.9281 13.0377 2.89352 13.3582C2.85893 13.6786 2.92465 14.002 3.08125 14.2819L12.0115 30.2327C12.1419 30.4655 12.3301 30.659 12.5571 30.7938C12.7841 30.9285 13.0419 30.9996 13.3044 31H38.6927C38.9553 30.9996 39.2131 30.9285 39.4401 30.7938C39.6671 30.659 39.8553 30.4655 39.9857 30.2327L48.9149 14.2819C49.0721 14.0025 49.1386 13.6793 49.1048 13.3589C49.0711 13.0384 48.9388 12.7371 48.7269 12.4983ZM26.0001 10.0592L31.3001 19.4396L26.0001 21.9011L20.7 19.4376L26.0001 10.0592ZM7.96656 16.8684L22.3968 23.5759L13.926 27.5131L7.96656 16.8684ZM37.8295 27.9511H20.1888L26.6077 24.9672L26.6286 24.9581L44.0336 16.8684L37.8295 27.9511Z" fill="url(#paint0_linear_10_2863)"/>
<path d="M48.7269 12.4983C48.5144 12.2599 48.2333 12.0966 47.9241 12.0318C47.6149 11.9669 47.2936 12.004 47.0063 12.1375L34.0292 18.1692L27.293 6.24609C27.1622 6.01389 26.9738 5.82101 26.7468 5.6869C26.5198 5.55279 26.2623 5.48218 26.0001 5.48218C25.7379 5.48218 25.4803 5.55279 25.2533 5.6869C25.0263 5.82101 24.8379 6.01389 24.7071 6.24609L17.9709 18.1692L4.9938 12.1375C4.70658 12.0041 4.38536 11.9672 4.07631 12.032C3.76725 12.0969 3.48627 12.2602 3.27375 12.4984C3.06123 12.7367 2.9281 13.0377 2.89352 13.3582C2.85893 13.6786 2.92465 14.002 3.08125 14.2819L12.0115 30.2327C12.1419 30.4655 12.3301 30.659 12.5571 30.7938C12.7841 30.9285 13.0419 30.9996 13.3044 31H38.6927C38.9553 30.9996 39.2131 30.9285 39.4401 30.7938C39.6671 30.659 39.8553 30.4655 39.9857 30.2327L48.9149 14.2819C49.0721 14.0025 49.1386 13.6793 49.1048 13.3589C49.0711 13.0384 48.9388 12.7371 48.7269 12.4983ZM26.0001 10.0592L31.3001 19.4396L26.0001 21.9011L20.7 19.4376L26.0001 10.0592ZM7.96656 16.8684L22.3968 23.5759L13.926 27.5131L7.96656 16.8684ZM37.8295 27.9511H20.1888L26.6077 24.9672L26.6286 24.9581L44.0336 16.8684L37.8295 27.9511Z" fill="#D6BA5C"/>
</g>
<path id="Vector_2" d="M27.7233 2.6352C28.1175 1.66291 27.6656 0.548219 26.7141 0.14548C25.7626 -0.257258 24.6717 0.20446 24.2776 1.17676C23.8835 2.14905 24.3353 3.26374 25.2868 3.66648C26.2383 4.06922 27.3292 3.6075 27.7233 2.6352Z" fill="url(#paint1_linear_10_2863)"/>
<path id="Vector_3" d="M3.31602 10.2106C3.96123 9.39031 3.8335 8.19086 3.03074 7.53156C2.22798 6.87227 1.05417 7.00278 0.408969 7.82307C-0.236235 8.64337 -0.108512 9.84282 0.694248 10.5021C1.49701 11.1614 2.67082 11.0309 3.31602 10.2106Z" fill="url(#paint2_linear_10_2863)"/>
<path id="Vector_4" d="M51.4542 10.3738C52.1824 9.62963 52.1824 8.4231 51.4542 7.67894C50.7259 6.93478 49.5452 6.93478 48.8169 7.67894C48.0887 8.4231 48.0887 9.62963 48.8169 10.3738C49.5452 11.118 50.7259 11.118 51.4542 10.3738Z" fill="url(#paint3_linear_10_2863)"/>
</g>
<defs>
<linearGradient id="paint0_linear_10_2863" x1="-0.328132" y1="9.92711" x2="48.9994" y2="27.6821" gradientUnits="userSpaceOnUse">
<stop stop-color="#E75220"/>
<stop offset="0.2" stop-color="#F8B335"/>
<stop offset="0.48" stop-color="#E75220"/>
<stop offset="0.74" stop-color="#F8B335"/>
<stop offset="1" stop-color="#E75220"/>
</linearGradient>
<linearGradient id="paint1_linear_10_2863" x1="5.35263" y1="-5.8548" x2="54.6812" y2="11.9002" gradientUnits="userSpaceOnUse">
<stop stop-color="#E75220"/>
<stop offset="0.2" stop-color="#F8B335"/>
<stop offset="0.48" stop-color="#E75220"/>
<stop offset="0.74" stop-color="#F8B335"/>
<stop offset="1" stop-color="#E75220"/>
</linearGradient>
<linearGradient id="paint2_linear_10_2863" x1="0.211576" y1="8.40603" x2="49.5391" y2="26.1601" gradientUnits="userSpaceOnUse">
<stop stop-color="#E75220"/>
<stop offset="0.2" stop-color="#F8B335"/>
<stop offset="0.48" stop-color="#E75220"/>
<stop offset="0.74" stop-color="#F8B335"/>
<stop offset="1" stop-color="#E75220"/>
</linearGradient>
<linearGradient id="paint3_linear_10_2863" x1="5.97048" y1="-7.57109" x2="55.2981" y2="10.183" gradientUnits="userSpaceOnUse">
<stop stop-color="#E75220"/>
<stop offset="0.2" stop-color="#F8B335"/>
<stop offset="0.48" stop-color="#E75220"/>
<stop offset="0.74" stop-color="#F8B335"/>
<stop offset="1" stop-color="#E75220"/>
</linearGradient>
<clipPath id="clip0_10_2863">
<rect width="52" height="31" fill="white"/>
</clipPath>
</defs>
</svg>
